Con Air*1997*[BluRay][1080p][ENG, POL]

General information:
Country: USA
Release: 5 June 1997
Genre: Action, Crime, Thriller 
Director: Simon West
Screenplay: Scott Rosenberg
Original Music: Mark Mancina, Trevor Rabin
Cinematography by:  
Duration: 1h 55mn
Language: English, Polish
Subtitles: Polish
Rating: 7.4/10 - 12665 votes

Cast:
Nicolas Cage  ...  Cameron Poe  
John Cusack  ...  U.S. Marshal Vince Larkin  
John Malkovich  ...  Cyrus 'The Virus' Grissom  
Ving Rhames  ...  Nathan 'Diamond Dog' Jones  
Nick Chinlund  ...  William 'Billy Bedlam' Bedford  
Steve Buscemi  ...  Garland 'The Marietta Mangler' Greene  
Colm Meaney  ...  DEA Agent Duncan Malloy  
Rachel Ticotin  ...  Guard Sally Bishop  
Dave Chappelle  ...  Joe 'Pinball' Parker  
Mykelti Williamson  ...  Mike 'Baby-O' O'Dell  
Danny Trejo  ...  Johnny 'Johnny-23' Baca  
M.C. Gainey  ...  Swamp Thing  
Steve Eastin  ...  Guard Falzon  
Renoly Santiago  ...  Ramon 'Sally-Can't Dance' Martinez (as Renoly)  
Monica Potter  ...  Tricia Poe  

Plot:
A newly released ex-con and former US Ranger finds himself trapped in a prisoner transport plane when the passengers seize control.

Specifications:
General
Format                           : Matroska
Overall bit rate                 : 11.0 Mbps

Video
Format                           : AVC
Format/Info                      : Advanced Video Codec
Format profile                   : High@L4.1
Format settings, CABAC           : Yes
Format settings, ReFrames        : 4 frames
Format settings, GOP             : N=1
Muxing mode                      : Container profile=Unknown@4.1
Codec ID                         : V_MPEG4/ISO/AVC
Bit rate                         : 9 298 Kbps
Width                            : 1 920 pixels
Height                           : 826 pixels
Display aspect ratio             : 2.35:1
Frame rate                       : 23.976 fps

Audio 1
Format                           : AC-3
Format/Info                      : Audio Coding 3
Mode extension                   : CM (complete main)
Codec ID                         : A_AC3
Bit rate mode                    : Constant
Bit rate                         : 192 Kbps
Channel(s)                       : 2 channels
Channel positions                : Front: L R
Sampling rate                    : 48.0 KHz
Bit depth                        : 16 bits
Stream size                      : 159 MiB (2%)
Language                         : Polish

Audio 2
Format                           : DTS
Format/Info                      : Digital Theater Systems
Codec ID                         : A_DTS
Bit rate mode                    : Constant
Bit rate                         : 1 510 Kbps
Channel(s)                       : 6 channels
Channel positions                : Front: L C R, Side: L R, LFE
Sampling rate                    : 48.0 KHz
Bit depth                        : 24 bits
Stream size                      : 1.22 GiB (14%)
Language                         : English

Text
Format                           : UTF-8
Codec ID                         : S_TEXT/UTF8
Codec ID/Info                    : UTF-8 Plain Text
Language                         : Polish
